name C:\Users\u0101727\Documents\MyRepositories\paper-ad\predictivesimulations_2d/Results/PredSim_2D/IK_c21.mot
datacolumns 11
datarows 30
range 1.27594651 1.55416041
endheader
time	pelvis_tilt	pelvis_tx	pelvis_ty	hip_flexion_l	hip_flexion_r	knee_angle_l	knee_angle_r	ankle_angle_l	ankle_angle_r	lumbar_extension	
          1.27594651	        -15.06319109	          1.69367579	          0.90069186	         33.15703866	         10.32662697	        -37.56580958	         -7.28351278	         15.70292992	         11.31335649	          9.37042671	
          1.28554009	        -15.06247662	          1.70566399	          0.89983153	         34.12563198	          9.55100102	        -36.09324366	         -7.33165675	         15.98848841	         11.32412896	          9.33061230	
          1.29513367	        -15.06283391	          1.71770783	          0.89891345	         35.03310752	          8.79304573	        -34.50403615	         -7.41557861	         16.19313458	         11.32254480	          9.29405434	
          1.30472726	        -15.06465521	          1.72981374	          0.89793652	         35.87597534	          8.05172035	        -32.80585928	         -7.53422477	         16.32598780	         11.31221589	          9.26106125	
          1.31432084	        -15.06826517	          1.74198984	          0.89689959	         36.64965514	          7.32666489	        -31.01019298	         -7.68785494	         16.39583014	         11.29398143	          9.23201823	
          1.32391442	        -15.07373524	          1.75424808	          0.89580529	         37.34743870	          6.61876455	        -29.14329242	         -7.88010453	         16.41080464	         11.26625670	          9.20751362	
          1.33350800	        -15.08109678	          1.76660670	          0.89466598	         37.95632753	          5.93004897	        -27.23938537	         -8.11720931	         16.37819668	         11.22302607	          9.18885236	
          1.34310159	        -15.09037409	          1.77908716	          0.89350332	         38.46052192	          5.26367012	        -25.33067425	         -8.40628118	         16.30440167	         11.15189006	          9.17775476	
          1.35269517	        -15.10124894	          1.79170823	          0.89233987	         38.85059537	          4.62404312	        -23.44499406	         -8.75580285	         16.19481011	         11.03656689	          9.17540619	
          1.36228875	        -15.11292560	          1.80448449	          0.89119360	         39.12643760	          4.01641111	        -21.60421957	         -9.17559966	         16.05354907	         10.86053584	          9.18221215	
          1.37188234	        -15.12419147	          1.81742877	          0.89007881	         39.29496346	          3.44605381	        -19.82992725	         -9.67597447	         15.88322123	         10.60951888	          9.19809809	
          1.38147592	        -15.13382447	          1.83055492	          0.88900767	         39.36338984	          2.91787500	        -18.13688616	        -10.26664114	         15.68502333	         10.27065549	          9.22315299	
          1.39106950	        -15.14068056	          1.84387742	          0.88798937	         39.33854567	          2.43630473	        -16.53687361	        -10.95616151	         15.45885204	          9.83179137	          9.25761527	
          1.40066308	        -15.14350481	          1.85741045	          0.88702916	         39.22803691	          2.00595254	        -15.04693978	        -11.75352130	         15.20342589	          9.28207507	          9.30162285	
          1.41025667	        -15.14103410	          1.87116841	          0.88612810	         39.03690668	          1.63233259	        -13.68161612	        -12.66899913	         14.91673008	          8.61053142	          9.35546713	
          1.41985025	        -15.13186418	          1.88516489	          0.88528189	         38.76992542	          1.32135049	        -12.46074402	        -13.71351640	         14.59588681	          7.80672016	          9.41940013	
          1.42944383	        -15.11443629	          1.89941164	          0.88447936	         38.43245869	          1.07866635	        -11.41311973	        -14.89728293	         14.23709827	          6.86312721	          9.49356972	
          1.43903741	        -15.08730656	          1.91391976	          0.88370141	         38.02484117	          0.90907458	        -10.56963578	        -16.22959669	         13.83600363	          5.77976035	          9.57856413	
          1.44863100	        -15.04928158	          1.92869753	          0.88291654	         37.54001101	          0.81549538	         -9.96396509	        -17.72343506	         13.38762056	          4.57896792	          9.67544684	
          1.45822458	        -15.00020470	          1.94373871	          0.88208090	         36.95996264	          0.80065364	         -9.64427198	        -19.38474873	         12.88715533	          3.27429534	          9.78536441	
          1.46781816	        -14.94263298	          1.95902624	          0.88121788	         36.21663717	          0.87178571	         -9.73108318	        -21.21040139	         12.33254568	          1.84569837	          9.91228930	
          1.47741175	        -14.88477643	          1.97437428	          0.88045430	         35.35318925	          1.03353156	        -10.04471862	        -23.18181540	         11.76312402	          0.37855904	         10.04679405	
          1.48700533	        -14.83760753	          1.98944221	          0.88001944	         34.49479717	          1.31274085	        -10.32427389	        -25.20660666	         11.21282415	         -0.90547355	         10.16563676	
          1.49659891	        -14.80969067	          2.00398292	          0.88017474	         33.67871818	          1.73767127	        -10.58189042	        -27.14459701	         10.68152397	         -1.90836661	         10.25490143	
          1.50619249	        -14.80337278	          2.01793340	          0.88107592	         32.90742076	          2.30424379	        -10.81244863	        -28.93313411	         10.18387437	         -2.65951001	         10.31344488	
          1.51578608	        -14.81396882	          2.03137682	          0.88268234	         32.16238787	          2.99569663	        -11.00396160	        -30.59289494	          9.73616548	         -3.16833487	         10.34740967	
          1.52537966	        -14.83488732	          2.04443737	          0.88478443	         31.42251471	          3.79148878	        -11.14752513	        -32.15298153	          9.34988994	         -3.44758750	         10.36382480	
          1.53497324	        -14.86076192	          2.05722253	          0.88714975	         30.67100598	          4.67605275	        -11.23634521	        -33.63098554	          9.03132431	         -3.51283411	         10.36800793	
          1.54456683	        -14.88815251	          2.06980658	          0.88959563	         29.89841435	          5.63735095	        -11.26851085	        -35.03539169	          8.78209276	         -3.37909841	         10.36315792	
          1.55416041	        -14.91516481	          2.08223650	          0.89199847	         29.10021120	          6.66637104	        -11.24446096	        -36.36752202	          8.60117394	         -3.06268296	         10.35103430	
